#!OML:ASF H:\Terrain\Patient Classification 1\Terrain2\Thursday\justin.ASF
:FULLY-SPECIFIED
:DEGREES
3503
root 8.76829 20.0905 15.4981 -727.049 4.3187 -1.98216
lowerback 5.35497 0.636891 1.01158
upperback 2.55518 0.924126 2.74967
thorax -0.403847 0.457268 2.20574
lowerneck -9.11518 -2.94246 -10.4209
upperneck 41.8996 -3.43264 4.4586
head 17.1312 -2.43623 3.36537
rclavicle 1.21818e-014 -3.97569e-015
rhumerus -40.2902 -12.6516 -74.0642
rradius 32.9788
rwrist -12.415
rhand -21.6428 10.1617
rfingers 7.12502
rthumb 4.75373 -19.765
lclavicle 1.21818e-014 -3.97569e-015
lhumerus -45.1625 6.37417 77.6595
lradius 37.2548
lwrist 4.68405
lhand -17.3849 20.5031
lfingers 7.12502
lthumb 8.86389 50.2969
rfemur -10.2425 -7.62216 23.0834
rtibia 14.3537
rfoot 29.7709 -10.7717
rtoes 25.8914
lfemur -6.66747 1.70888 -8.16911
ltibia 84.2317
lfoot -18.9172 -32.616
ltoes 3.04368
3504
root 8.74147 19.932 15.638 -726.984 4.68818 -1.59544
lowerback 4.97038 0.570154 0.769847
upperback 2.5374 0.813533 2.57207
thorax -0.205553 0.400683 2.16823
lowerneck -9.41454 -3.02039 -10.34
upperneck 42.0002 -3.52193 4.4091
head 17.2735 -2.46734 3.31564
rclavicle 1.22253e-014 -7.95139e-016
rhumerus -40.3711 -12.2977 -74.3459
rradius 33.4793
rwrist -12.699
rhand -22.3588 9.22117
rfingers 7.12502
rthumb 4.06227 -20.7198
lclavicle 1.22253e-014 -7.95139e-016
lhumerus -45.266 6.38053 77.45
lradius 37.5007
lwrist 5.07451
lhand -17.421 20.894
lfingers 7.12502
lthumb 8.82914 50.6893
rfemur -9.55217 -7.50181 22.4635
rtibia 13.7937
rfoot 30.2396 -12.4321
rtoes 28.5118
lfemur -6.72628 1.59551 -8.18604
ltibia 85.7115
lfoot -17.9625 -33.4577
ltoes 5.12535
3505
root 8.71195 19.734 15.7724 -727.088 4.96046 -1.48435
lowerback 4.8775 0.407204 0.630425
upperback 2.50322 0.589794 2.64851
thorax -0.183768 0.287205 2.3373
lowerneck -9.56004 -2.92021 -10.4818
upperneck 41.9455 -3.24156 4.24435
head 17.2504 -2.39349 3.30927
rclavicle -2.38852e-015 -1.98785e-014
rhumerus -40.4933 -11.5894 -74.4821
rradius 34.0991
rwrist -13.0516
rhand -22.5766 8.85678
rfingers 7.12502
rthumb 3.85201 -21.0882
lclavicle -2.38852e-015 -1.98785e-014
lhumerus -45.611 6.85281 77.3275
lradius 37.8537
lwrist 5.11692
lhand -17.0467 21.4871
lfingers 7.12502
lthumb 9.19029 51.2668
rfemur -8.61011 -8.16076 22.4002
rtibia 13.6495
rfoot 31.0353 -11.8076
rtoes 27.831
lfemur -6.7357 1.56017 -7.70982
ltibia 87.3891
lfoot -16.7452 -34.8851
ltoes 6.92107
3506
root 8.67346 19.5323 15.9066 -727.178 5.23041 -1.2614
lowerback 4.79597 0.271855 0.344471
upperback 2.45581 0.397033 2.66934
thorax -0.182004 0.188412 2.5295
lowerneck -9.67877 -2.84605 -10.7601
upperneck 41.8813 -3.03972 4.25849
head 17.2323 -2.35065 3.39735
rclavicle -3.53716e-015 -3.18055e-015
rhumerus -40.564 -11.0894 -74.5763
rradius 34.5319
rwrist -13.4318
rhand -22.5904 8.69317
rfingers 7.12502
rthumb 3.83866 -21.252
lclavicle -3.53716e-015 -3.18055e-015
lhumerus -45.8228 7.24329 77.1735
lradius 38.0321
lwrist 5.1082
lhand -17.3704 21.2331
lfingers 7.12502
lthumb 8.87794 51.0263
rfemur -7.95976 -8.67015 22.231
rtibia 14.1632
rfoot 29.2519 -10.6908
rtoes 21.9386
lfemur -6.92427 1.42419 -7.33759
ltibia 89.1416
lfoot -15.1114 -36.1333
ltoes 9.10937
3507
root 8.63637 19.3225 16.0382 -727.187 5.5427 -0.835355
lowerback 4.52848 0.215925 -0.0687502
upperback 2.46585 0.300211 2.49915
thorax -0.0197758 0.136356 2.59197
lowerneck -9.67865 -2.87362 -10.7978
upperneck 41.574 -3.11863 4.37503
head 17.0674 -2.36498 3.43321
rclavicle 3.98346e-015 3.97569e-015
rhumerus -40.5951 -10.7653 -74.9155
rradius 35.0105
rwrist -12.8912
rhand -22.8796 7.60616
rfingers 7.12502
rthumb 3.55935 -22.3439
lclavicle 3.98346e-015 3.97569e-015
lhumerus -45.7592 7.20281 76.9552
lradius 38.0348
lwrist 5.2418
lhand -18.3853 20.9623
lfingers 7.12502
lthumb 7.89843 50.7948
rfemur -7.68741 -8.76928 21.771
rtibia 15.6575
rfoot 23.6383 -7.85728
rtoes 16.1168
lfemur -7.24762 1.30684 -7.1733
ltibia 90.938
lfoot -13.892 -36.4847
ltoes 9.69186
3508
root 8.59861 19.0937 16.1613 -727.334 5.80673 -0.514107
lowerback 4.61526 0.181017 -0.416918
upperback 2.44685 0.240715 2.375
thorax -0.0857135 0.104729 2.66258
lowerneck -9.71164 -2.82163 -10.6808
upperneck 41.2527 -3.08341 4.4257
head 16.884 -2.31504 3.42934
rclavicle -9.80257e-015 -1.90833e-014
rhumerus -40.7067 -10.3599 -75.242
rradius 35.6399
rwrist -12.1615
rhand -23.2829 5.75144
rfingers 7.12502
rthumb 3.16988 -24.2047
lclavicle -9.80257e-015 -1.90833e-014
lhumerus -45.8027 7.1793 76.7326
lradius 38.0955
lwrist 5.27982
lhand -18.3207 21.5302
lfingers 7.12502
lthumb 7.96084 51.3603
rfemur -7.33468 -8.32667 21.4138
rtibia 17.5356
rfoot 17.2063 -5.77723
rtoes 11.6833
lfemur -7.43146 1.29614 -6.70963
ltibia 92.8132
lfoot -12.1062 -37.4046
ltoes 11.5429
3509
root 8.54872 18.922 16.2903 -727.757 5.85838 -0.941922
lowerback 5.27015 0.158811 -0.00472235
upperback 2.31796 0.23991 2.4501
thorax -0.581812 0.111096 2.50703
lowerneck -9.91952 -2.76245 -10.5316
upperneck 41.2697 -3.01168 4.43596
head 16.9315 -2.25976 3.41978
rclavicle 2.50407e-014 1.98785e-014
rhumerus -40.9602 -10.7267 -74.912
rradius 35.7206
rwrist -12.6795
rhand -21.0385 8.80016
rfingers 7.12502
rthumb 5.33722 -21.1126
lclavicle 2.50407e-014 1.98785e-014
lhumerus -46.0226 7.26951 76.4454
lradius 38.0489
lwrist 5.19853
lhand -17.8393 22.09
lfingers 7.12502
lthumb 8.42539 51.9019
rfemur -7.1723 -8.0241 22.0189
rtibia 19.9224
rfoot 11.1186 -4.90381
rtoes 7.96072
lfemur -7.25223 1.43836 -5.07704
ltibia 94.4226
lfoot -8.89883 -39.2242
ltoes 16.2801
3510
root 8.50388 18.692 16.4025 -728.061 5.74089 -1.65341
lowerback 5.81926 0.145675 0.7373
upperback 2.12485 0.277304 2.57187
thorax -1.08491 0.135398 2.21221
lowerneck -10.0129 -2.75727 -10.3696
upperneck 41.3036 -3.05054 4.45842
head 16.9723 -2.24893 3.39543
rclavicle -3.06874e-015 -9.54166e-015
rhumerus -41.2073 -10.5212 -75.2471
rradius 35.8356
rwrist -12.7757
rhand -20.9776 10.7996
rfingers 7.12502
rthumb 5.39595 -19.1117
lclavicle -3.06874e-015 -9.54166e-015
lhumerus -46.1987 7.35544 76.1643
lradius 37.8329
lwrist 5.24968
lhand -18.3814 21.8704
lfingers 7.12502
lthumb 7.90223 51.7027
rfemur -7.06531 -7.78494 23.0532
rtibia 22.2885
rfoot 5.19814 -3.89675
rtoes 1.68719
lfemur -7.49281 1.69988 -2.9445
ltibia 96.376
lfoot -6.83584 -40.5583
ltoes 18.2911
3511
root 8.47258 18.4528 16.5016 -728.136 5.68619 -1.76321
lowerback 6.12308 0.150386 1.01572
upperback 1.97914 0.309913 2.50936
thorax -1.40323 0.153048 1.98863
lowerneck -10.0833 -2.75576 -10.192
upperneck 41.2553 -3.0684 4.40234
head 16.957 -2.23461 3.33247
rclavicle -7.41715e-015 -6.36111e-015
rhumerus -41.2132 -10.4475 -75.5411
rradius 35.7703
rwrist -12.956
rhand -21.2932 11.6935
rfingers 7.12502
rthumb 5.0913 -18.2254
lclavicle -7.41715e-015 -6.36111e-015
lhumerus -46.1587 7.6252 75.8958
lradius 37.5012
lwrist 5.28083
lhand -19.2524 21.4987
lfingers 7.12502
lthumb 7.06149 51.3609
rfemur -7.02105 -8.60423 23.5398
rtibia 24.7462
rfoot -1.95988 -1.61176
rtoes -14.2118
lfemur -7.90146 1.72196 -1.9033
ltibia 98.2698
lfoot -5.86399 -41.1652
ltoes 17.8359
3512
root 8.44706 18.2198 16.5907 -728.372 5.50496 -1.78747
lowerback 6.76934 0.223924 1.33221
upperback 1.84666 0.44759 2.41189
thorax -1.89987 0.221539 1.69851
lowerneck -10.1736 -2.76829 -9.98713
upperneck 41.2791 -3.0901 4.29181
head 16.9866 -2.22592 3.24175
rclavicle -3.39176e-015 -2.38542e-015
rhumerus -41.0727 -10.5406 -75.6454
rradius 35.4318
rwrist -13.0679
rhand -21.2511 12.3357
rfingers 7.12502
rthumb 5.1319 -17.5822
lclavicle -3.39176e-015 -2.38542e-015
lhumerus -46.1223 7.89573 75.6206
lradius 37.2056
lwrist 5.13302
lhand -19.705 21.6509
lfingers 7.12502
lthumb 6.62458 51.5273
rfemur -7.09638 -8.74731 23.7884
rtibia 26.8409
rfoot -5.28341 -2.2996
rtoes -17.8423
lfemur -7.95235 1.65514 -1.04752
ltibia 99.9964
lfoot -4.07082 -42.079
ltoes 19.4667
3513
root 8.41728 18.0155 16.6837 -728.753 4.97454 -2.19343
lowerback 7.55063 0.334376 1.98047
upperback 1.78461 0.670963 2.46612
thorax -2.3961 0.328985 1.36782
lowerneck -10.2875 -2.78249 -9.83932
upperneck 41.2593 -3.11847 4.23037
head 17.0011 -2.22188 3.18092
rclavicle 2.41026e-014 6.59965e-014
rhumerus -40.6659 -10.5645 -75.7287
rradius 34.8924
rwrist -13.3109
rhand -21.0961 12.9879
rfingers 7.12502
rthumb 5.28155 -16.9263
lclavicle 2.41026e-014 6.59965e-014
lhumerus -46.0205 8.40584 75.1921
lradius 36.7236
lwrist 4.28989
lhand -19.3616 21.3395
lfingers 7.12502
lthumb 6.95614 51.2052
rfemur -7.49796 -8.13962 24.5122
rtibia 29.0773
rfoot -7.31024 -3.54602
rtoes -14.1194
lfemur -7.63109 1.90486 0.520561
ltibia 101.403
lfoot -1.93633 -43.2813
ltoes 21.0513
